<svg width="9" height="9" viewBox="0 0 9 9" fill="none" xmlns="http://www.w3.org/2000/svg">
<path d="M2.5 4.36364C2.5 3.97538 2.5947 3.62145 2.78409 3.30185C2.97348 2.98224 3.22798 2.72775 3.54759 2.53835C3.86719 2.34896 4.22112 2.25426 4.60938 2.25426C4.94555 2.25426 5.25568 2.32647 5.53977 2.47088C5.82623 2.61529 6.06297 2.81297 6.25 3.06392C6.43703 3.3125 6.55303 3.59422 6.59801 3.90909H5.73864C5.69129 3.66525 5.5599 3.46638 5.34446 3.3125C5.12902 3.15625 4.884 3.07812 4.60938 3.07812C4.37263 3.07812 4.1572 3.13613 3.96307 3.25213C3.76894 3.36813 3.61387 3.5232 3.49787 3.71733C3.38187 3.91146 3.32386 4.12689 3.32386 4.36364C3.32386 4.60038 3.38187 4.81581 3.49787 5.00994C3.61387 5.20407 3.76894 5.35914 3.96307 5.47514C4.1572 5.59115 4.37263 5.64915 4.60938 5.64915C4.884 5.64915 5.116 5.57221 5.3054 5.41832C5.49716 5.26207 5.6179 5.06203 5.66761 4.81818H6.52699C6.48201 5.13305 6.37192 5.41596 6.19673 5.6669C6.02154 5.91548 5.79664 6.11198 5.52202 6.25639C5.24976 6.4008 4.94555 6.47301 4.60938 6.47301C4.22112 6.47301 3.86719 6.37831 3.54759 6.18892C3.22798 5.99953 2.97348 5.74503 2.78409 5.42543C2.5947 5.10582 2.5 4.75189 2.5 4.36364ZM4.57386 8.11364C4.05777 8.11364 3.57244 8.01657 3.1179 7.82244C2.66572 7.62831 2.26681 7.35961 1.92116 7.01634C1.57789 6.67069 1.308 6.27178 1.11151 5.8196C0.917377 5.36742 0.821496 4.8821 0.823864 4.36364C0.826231 3.84517 0.924479 3.35985 1.11861 2.90767C1.3151 2.45549 1.58499 2.05777 1.92827 1.71449C2.27154 1.36884 2.66927 1.09896 3.12145 0.904829C3.57363 0.710701 4.05777 0.613636 4.57386 0.613636C5.09233 0.613636 5.57765 0.710701 6.02983 0.904829C6.48438 1.09896 6.8821 1.36884 7.22301 1.71449C7.56629 2.05777 7.83499 2.45549 8.02912 2.90767C8.22325 3.35985 8.3215 3.84517 8.32386 4.36364C8.32623 4.8821 8.23035 5.36742 8.03622 5.8196C7.84209 6.27178 7.57339 6.67069 7.23011 7.01634C6.88684 7.35961 6.48793 7.62831 6.03338 7.82244C5.57884 8.01657 5.09233 8.11364 4.57386 8.11364ZM4.57386 7.28977C4.97869 7.28977 5.35866 7.21402 5.71378 7.0625C6.06889 6.91098 6.38021 6.70147 6.64773 6.43395C6.91525 6.16643 7.12476 5.8563 7.27628 5.50355C7.42779 5.14844 7.50237 4.76965 7.5 4.36719C7.49763 3.96236 7.42069 3.58239 7.26918 3.22727C7.11766 2.87216 6.90814 2.56084 6.64062 2.29332C6.37311 2.0258 6.06297 1.81629 5.71023 1.66477C5.35748 1.51326 4.97869 1.4375 4.57386 1.4375C4.1714 1.4375 3.7938 1.51326 3.44105 1.66477C3.0883 1.81629 2.77817 2.02699 2.51065 2.29688C2.24313 2.56439 2.03243 2.87571 1.87855 3.23082C1.72704 3.58357 1.65009 3.96236 1.64773 4.36719C1.64536 4.76728 1.71993 5.14489 1.87145 5.5C2.02296 5.85275 2.23248 6.16288 2.5 6.4304C2.76989 6.69792 3.0812 6.90862 3.43395 7.0625C3.78906 7.21402 4.16903 7.28977 4.57386 7.28977Z" fill="#8C8C8C"/>
</svg>
